<?xml version="1.0" encoding="UTF-8"?>
<svg width="512" height="512" viewBox="0 0 512 512" fill="none" xmlns="http://www.w3.org/2000/svg">
  <rect width="512" height="512" rx="100" fill="#1E90FF"/>
  <path d="M398 306.5C398 352.451 361.003 390 315.778 390H136.222C90.9972 390 54 352.451 54 306.5C54 260.549 90.9972 223 136.222 223C136.222 223 143.333 223 148 223C159.862 153.25 222.14 102 298 102C373.86 102 436.138 153.25 448 223C452.667 223 458 223 458 223C458 268.951 443.226 306.5 398 306.5Z" fill="white"/>
  <path d="M374 256.5C374 302.451 337.003 340 291.778 340H112.222C66.9972 340 30 302.451 30 256.5C30 210.549 66.9972 173 112.222 173C112.222 173 119.333 173 124 173C135.862 103.25 198.14 52 274 52C349.86 52 412.138 103.25 424 173C428.667 173 434 173 434 173C434 218.951 419.226 256.5 374 256.5Z" fill="white" fill-opacity="0.7"/>
</svg> 