<?xml version="1.0" encoding="UTF-8"?>
<svg width="48" height="48" viewBox="0 0 48 48" fill="none" xmlns="http://www.w3.org/2000/svg">
  <rect width="48" height="48" rx="8" fill="#1E90FF"/>
  <path d="M37 29C37 33 33.5 36.5 29 36.5H13C8.5 36.5 5 33 5 29C5 25 8.5 21.5 13 21.5C13 21.5 13.5 21.5 14 21.5C15 15 21 10 28 10C35 10 41 15 42 21.5C42.5 21.5 43 21.5 43 21.5C43 25.5 41 29 37 29Z" fill="white"/>
  <path d="M35 25C35 29 31.5 32.5 27 32.5H11C6.5 32.5 3 29 3 25C3 21 6.5 17.5 11 17.5C11 17.5 11.5 17.5 12 17.5C13 11 19 6 26 6C33 6 39 11 40 17.5C40.5 17.5 41 17.5 41 17.5C41 21.5 39 25 35 25Z" fill="white" fill-opacity="0.7"/>
</svg> 